<?xml version="1.0" encoding="utf-8"?>
<!-- Generator: Adobe Illustrator 14.0.0, SVG Export Plug-In . SVG Version: 6.00 Build 43363)  -->
<!DOCTYPE svg PUBLIC "-//W3C//DTD SVG 1.1//EN" "http://www.w3.org/Graphics/SVG/1.1/DTD/svg11.dtd">
<svg version="1.1" id="Layer_1" xmlns="http://www.w3.org/2000/svg" xmlns:xlink="http://www.w3.org/1999/xlink" x="0px" y="0px"
	 width="612px" height="792px" viewBox="0 0 612 792" enable-background="new 0 0 612 792" xml:space="preserve">
<g>
	<line fill="none" stroke="#D5C5AD" x1="221.622" y1="287.569" x2="282.408" y2="249.937"/>
	<line fill="none" stroke="#D5C5AD" x1="282.408" y1="249.937" x2="336.919" y2="288.29"/>
</g>
<g>
	<line fill="none" stroke="#D5C5AD" x1="337.444" y1="354.326" x2="278.862" y2="390.306"/>
	<line fill="none" stroke="#D5C5AD" x1="278.647" y1="390.06" x2="225.303" y2="354.574"/>
</g>
<line fill="none" stroke="#D5C5AD" x1="220.144" y1="295.397" x2="220.144" y2="342.336"/>
<line fill="none" stroke="#D5C5AD" x1="340.14" y1="296.514" x2="340.14" y2="343.454"/>
<text transform="matrix(1 0 0 1 228.6074 329.4272)" fill="#E0BDBD" font-family="'Didot'" font-size="48">nabz</text>
<path fill="none" stroke="#0F0D1A" d="M229.808,329.427h11.52v-0.672h-3.695v-10.848c0-1.28,0.199-2.464,0.6-3.553
	c0.398-1.087,0.952-2.031,1.656-2.832c0.703-0.799,1.52-1.423,2.447-1.872c0.928-0.447,1.904-0.672,2.929-0.672
	c1.248,0,2.167,0.4,2.76,1.2c0.593,0.801,0.888,1.824,0.888,3.072v15.504h-3.695v0.672h11.52v-0.672h-3.697V314.74
	c0-2.24-0.664-3.872-1.99-4.896c-1.329-1.023-3.049-1.536-5.16-1.536c-1.377,0-2.544,0.216-3.504,0.648
	c-0.96,0.432-1.762,0.952-2.4,1.56c-0.641,0.608-1.145,1.232-1.512,1.872c-0.368,0.641-0.648,1.169-0.84,1.584h-0.096v-5.136h-7.729
	v0.672h3.695v19.248h-3.695V329.427z"/>
<path fill="none" stroke="#0F0D1A" d="M280.495,328.372c-0.354,0.256-0.721,0.448-1.104,0.574c-0.384,0.13-0.752,0.193-1.104,0.193
	c-0.543,0-0.959-0.159-1.248-0.479c-0.287-0.32-0.432-0.944-0.432-1.872v-11.952c0-0.864-0.128-1.688-0.384-2.472
	c-0.257-0.784-0.688-1.488-1.296-2.112c-0.608-0.624-1.408-1.12-2.4-1.488c-0.992-0.367-2.225-0.552-3.695-0.552
	c-1.217,0-2.297,0.144-3.24,0.432c-0.944,0.288-1.729,0.681-2.353,1.176c-0.624,0.497-1.097,1.064-1.416,1.704
	c-0.321,0.641-0.479,1.312-0.479,2.017c0,0.608,0.127,1.104,0.384,1.487c0.256,0.385,0.912,0.576,1.968,0.576
	c0.607,0,1.072-0.151,1.393-0.456c0.319-0.304,0.479-0.68,0.479-1.128c0-0.256-0.048-0.647-0.144-1.176s-0.145-1.064-0.145-1.608
	c0-0.831,0.344-1.432,1.032-1.8c0.688-0.367,1.56-0.552,2.616-0.552c0.799,0,1.439,0.112,1.92,0.336
	c0.48,0.225,0.848,0.552,1.104,0.984c0.256,0.432,0.432,0.951,0.528,1.56s0.146,1.296,0.146,2.064c0,0.96-0.074,1.72-0.218,2.279
	c-0.144,0.561-0.407,1.024-0.792,1.393c-0.384,0.368-0.92,0.68-1.607,0.936c-0.688,0.257-1.561,0.561-2.616,0.912
	c-0.896,0.288-1.784,0.561-2.664,0.816c-0.881,0.256-1.681,0.584-2.399,0.983c-0.721,0.4-1.305,0.937-1.752,1.608
	c-0.449,0.672-0.673,1.568-0.673,2.688c0,0.48,0.072,1.001,0.216,1.561c0.145,0.561,0.439,1.064,0.889,1.512
	c0.447,0.448,1.072,0.824,1.871,1.128c0.8,0.303,1.873,0.456,3.217,0.456c1.184,0,2.16-0.137,2.928-0.408s1.384-0.607,1.848-1.008
	c0.463-0.399,0.809-0.815,1.032-1.248c0.224-0.432,0.4-0.792,0.528-1.08h0.096c0.256,1.185,0.727,2.104,1.416,2.761
	c0.688,0.655,1.801,0.983,3.336,0.983c0.832,0,1.536-0.12,2.112-0.36c0.575-0.239,1.071-0.52,1.487-0.84L280.495,328.372z
	 M272.479,322.467c0,0.641-0.058,1.353-0.168,2.136c-0.112,0.785-0.336,1.513-0.672,2.185s-0.833,1.231-1.488,1.68
	s-1.512,0.672-2.567,0.672c-0.737,0-1.336-0.127-1.801-0.384c-0.464-0.256-0.824-0.584-1.08-0.984
	c-0.256-0.399-0.432-0.855-0.527-1.368c-0.096-0.511-0.145-1.008-0.145-1.487c0-1.12,0.271-2.056,0.816-2.809
	c0.544-0.751,1.326-1.335,2.352-1.752l3.6-1.439c0.992-0.416,1.521-0.832,1.584-1.248h0.097V322.467z"/>
<path fill="none" stroke="#0F0D1A" d="M282.366,329.427h7.729v-4.176h0.096c0.127,0.384,0.319,0.848,0.576,1.392
	c0.256,0.545,0.633,1.072,1.129,1.584c0.496,0.513,1.119,0.953,1.871,1.32s1.672,0.552,2.76,0.552c1.408,0,2.744-0.305,4.008-0.912
	s2.375-1.423,3.336-2.448c0.96-1.023,1.72-2.199,2.281-3.527c0.559-1.328,0.838-2.728,0.838-4.2c0-1.44-0.271-2.815-0.814-4.128
	c-0.545-1.312-1.279-2.455-2.208-3.432s-2.001-1.76-3.217-2.353c-1.216-0.592-2.513-0.888-3.888-0.888
	c-1.76,0-3.185,0.432-4.271,1.296c-1.089,0.864-1.857,1.92-2.305,3.168h-0.096v-17.856h-7.824v0.674h3.697v33.263h-3.697V329.427z
	 M302.047,322.971c-0.097,1.36-0.336,2.521-0.722,3.48c-0.383,0.96-0.959,1.696-1.727,2.207c-0.769,0.513-1.809,0.769-3.119,0.769
	c-1.345,0-2.425-0.288-3.242-0.864c-0.814-0.576-1.447-1.32-1.895-2.231c-0.449-0.912-0.753-1.928-0.912-3.049
	c-0.16-1.119-0.24-2.208-0.24-3.264c0-1.248,0.024-2.328,0.072-3.24c0.049-0.911,0.137-1.72,0.264-2.424
	c0.127-0.703,0.295-1.312,0.504-1.824c0.207-0.511,0.488-0.991,0.84-1.439c0.48-0.64,1.105-1.168,1.871-1.584
	c0.77-0.416,1.744-0.624,2.93-0.624c1.119,0,2.04,0.225,2.76,0.672c0.721,0.448,1.279,1.088,1.68,1.92
	c0.399,0.833,0.68,1.832,0.84,3c0.16,1.169,0.24,2.488,0.24,3.96C302.19,320.099,302.144,321.612,302.047,322.971z"/>
<path fill="none" stroke="#0F0D1A" d="M312.27,314.211h0.384c0.48-1.184,0.928-2.096,1.344-2.736
	c0.416-0.64,0.864-1.104,1.344-1.392c0.48-0.288,1.016-0.456,1.609-0.504c0.59-0.049,1.287-0.072,2.088-0.072h4.127l-11.953,19.92
	h16.705l0.623-6.24h-0.383c-0.191,0.576-0.393,1.185-0.6,1.824c-0.209,0.641-0.497,1.24-0.864,1.8
	c-0.368,0.561-0.849,1.024-1.44,1.393s-1.352,0.552-2.279,0.552h-6.768l11.951-19.92h-15.216L312.27,314.211z"/>
<path fill="#0F0D1A" d="M229.841,337.52h101.521H229.841z"/>
<line fill="none" stroke="#D5C5AD" x1="229.841" y1="337.52" x2="331.362" y2="337.52"/>
<text transform="matrix(1 0 0 1 229.8408 348.355)"><tspan x="0" y="0" font-family="'PTSans-Regular'" font-size="9">stylist | creati</tspan><tspan x="51.479" y="0" font-family="'PTSans-Regular'" font-size="9">v</tspan><tspan x="55.727" y="0" font-family="'PTSans-Regular'" font-size="9">e </tspan><tspan x="62.702" y="0" font-family="'PTSans-Regular'" font-size="9">c</tspan><tspan x="66.562" y="0" font-family="'PTSans-Regular'" font-size="9">onsultant</tspan></text>
</svg>
